Coordinates
version=1
nRows=10
nColumns=34
inDegrees=yes

Units are S.I. units (second, meters, Newtons, ...)
If the header above contains a line with 'inDegrees', this indicates whether rotational values are in degrees (yes) or radians (no).

endheader
time	pelvis_tilt	pelvis_list	pelvis_rotation	pelvis_tx	pelvis_ty	pelvis_tz	hip_flexion_r	hip_adduction_r	hip_rotation_r	knee_angle_r	ankle_angle_r	subtalar_angle_r	mtp_angle_r	hip_flexion_l	hip_adduction_l	hip_rotation_l	knee_angle_l	ankle_angle_l	subtalar_angle_l	mtp_angle_l	lumbar_extension	lumbar_bending	lumbar_rotation	arm_flex_r	arm_add_r	arm_rot_r	elbow_flex_r	pro_sup_r	arm_flex_l	arm_add_l	arm_rot_l	elbow_flex_l	pro_sup_l
      1.25000000	      4.11088945	      1.24355125	      2.76715573	      0.33047503	      0.65722248	     -0.14383618	     86.66656750	     -8.30104715	      1.23334550	    100.11680645	     10.38282682	    -23.90278672	      0.00000000	     87.44908936	     -5.28211720	      0.78359861	     99.50510287	      7.79689405	    -16.16378701	      0.00000000	    -58.44808992	      0.08745472	     -0.45451601	     14.48464686	    -12.72059111	    -11.13823089	     62.86809520	    108.14296606	     20.18385777	    -13.84481463	      0.03106933	     47.31079076	     96.00691111
      1.26666670	      1.37372169	      1.12878015	      2.67857882	      0.34433386	      0.66034350	     -0.14097172	     89.02626575	     -7.91717111	      1.26736576	    100.08550254	     10.67028028	    -24.00385274	      0.00000000	     89.87229368	     -5.45630244	      0.93434839	     99.38471045	      7.75388361	    -16.40134683	      0.00000000	    -57.79200738	      0.10720099	     -0.14601579	     15.49530028	    -13.23783673	    -10.87663875	     62.94834692	    108.20742819	     21.87461566	    -14.47399745	     -0.08572698	     48.60623259	     96.17796309
      1.28333330	     -1.62015547	      1.12864825	      2.45133967	      0.35823136	      0.65644986	     -0.13653634	     91.75006955	     -7.41826881	      1.28042368	    100.25423386	     10.91421205	    -24.56594327	      0.00000000	     92.52992697	     -5.85702016	      1.13805136	     99.63610823	      8.24733696	    -16.26872191	      0.00000000	    -56.70020647	     -0.23678703	      0.00200608	     16.37442025	    -13.59069165	    -10.68164988	     63.04520560	    108.25039756	     22.99982687	    -14.99615610	     -0.42966678	     49.27128814	     96.27343768
      1.30000000	     -4.56404752	      1.32573656	      2.16047022	      0.35001095	      0.65463701	     -0.14046602	     94.24658381	     -6.92256120	      1.78277337	     99.54191200	     10.52207738	    -24.94156841	      0.00000000	     95.25320280	     -5.92499545	      0.89505770	     99.24368038	      7.50580196	    -17.17929722	      0.00000000	    -56.05412160	     -0.62437214	      0.15839242	     17.42882662	    -14.03684920	    -10.48679156	     62.78607685	    108.28457602	     24.54592282	    -15.33934641	     -0.96443658	     50.04954548	     96.32258092
      1.31666670	     -7.48747748	      1.31612366	      1.64213909	      0.34476098	      0.64251969	     -0.14375793	     97.43598493	     -6.37548926	      2.10144318	     99.14935306	     10.48748657	    -25.65218846	      0.00000000	     98.29983775	     -6.05074325	      1.02048817	     98.90746929	      7.12976210	    -17.62458973	      0.00000000	    -54.75311681	     -0.83804592	      0.27808087	     18.84020662	    -14.76975549	    -10.15240480	     62.86838245	    108.28273790	     25.89147172	    -15.45575073	     -1.30944398	     50.42562210	     96.36384266
      1.33333330	    -10.59182870	      1.30965506	      0.95404285	      0.35905781	      0.64586466	     -0.13967536	    100.17569325	     -5.57727400	      2.33184387	     98.74467296	      9.42548083	    -27.68599720	      0.00000000	    101.09518394	     -6.50231213	      1.37107481	     98.58174326	      6.59649770	    -18.32341623	      0.00000000	    -53.27412702	     -1.22427027	      0.19437410	     20.72220853	    -15.51779813	     -8.54375074	     61.13028718	    108.25094811	     27.27623050	    -15.44661414	     -1.38433560	     48.45790425	     96.48714691
      1.35000000	    -13.66986121	      1.43106656	      0.06967730	      0.37390974	      0.64505368	     -0.13498537	    102.47523126	     -4.49215797	      2.44244088	     98.30861223	      9.33522481	    -29.09620142	      0.00000000	    103.29792263	     -7.47214236	      1.68377279	     98.34595058	      8.15807346	    -17.13245344	      0.00000000	    -51.38052159	     -1.97956928	      0.19520205	     22.47169522	    -16.28757893	     -6.38151234	     58.86117563	    108.10012936	     28.70603318	    -15.91242581	     -0.78627864	     46.46785138	     96.52428584
      1.36666670	    -16.57074291	      1.42892957	     -0.38577095	      0.40496014	      0.64345529	     -0.14108194	    104.53783818	     -4.10775617	      2.45022910	     98.89415799	     10.06704955	    -30.20126105	      0.00000000	    105.40522226	     -8.01129794	      1.93742000	     98.87912015	     10.79248327	    -15.62757049	      0.00000000	    -49.28792034	     -2.14244552	      0.01543068	     23.06861440	    -16.54592730	     -5.04728783	     56.52009225	    107.84999820	     29.56226165	    -16.11681522	     -0.67739830	     44.47782950	     96.31007377
      1.38333330	    -19.32158686	      1.71193108	     -0.64989594	      0.41593280	      0.64928608	     -0.15433778	    106.02798370	     -4.26392694	      2.99662395	     98.85285276	     11.10901184	    -30.03212740	      0.00000000	    106.80961698	     -7.90015781	      1.44732707	     99.05362658	     12.93493423	    -15.53035928	      0.00000000	    -47.57318571	     -2.17801002	     -0.60828280	     23.89027461	    -16.97823880	     -3.03318167	     54.14568713	    107.48115131	     30.26468123	    -16.13064008	     -0.70097712	     42.30005861	     95.80414489
      1.40000000	    -21.16620112	      1.77625714	     -0.53543802	      0.43426600	      0.65052246	     -0.15499437	    107.12031129	     -4.98534352	      2.99250551	     99.41640834	     12.13326385	    -30.10335948	      0.00000000	    107.45708193	     -7.49393804	      1.22216842	     99.36235764	     15.25938346	    -15.01814080	      0.00000000	    -46.87197759	     -1.87978883	     -0.99168734	     24.19680444	    -17.20712064	     -2.31348561	     53.02538340	    107.24108623	     30.55644521	    -15.89593221	     -1.10340198	     41.60008795	     95.42204345
